<svg width="149" height="46" viewBox="0 0 149 46" fill="none" xmlns="http://www.w3.org/2000/svg">
<g id="&#208;&#161;&#208;&#190;&#209;&#134;&#209;&#129;&#208;&#181;&#209;&#130;&#208;&#184;">
<g id="&#208;&#167;&#208;&#176;&#209;&#130;">
<circle id="Ellipse 16" cx="126" cy="23" r="22.25" fill="white" stroke="#41B7E9" stroke-width="1.5"/>
<g id="Group 27">
<g id="_x31_4_comment">
<g id="Group">
<path id="Vector" d="M121.433 32.7333C121.34 32.7333 121.247 32.7124 121.158 32.6706C120.94 32.5649 120.8 32.3438 120.8 32.1V28.9333H118.9C117.852 28.9333 117 28.0809 117 27.0333V16.9C117 15.8525 117.852 15 118.9 15H134.1C135.148 15 136 15.8525 136 16.9V27.0333C136 28.0809 135.148 28.9333 134.1 28.9333H126.406L121.829 32.5946C121.715 32.6865 121.575 32.7333 121.433 32.7333ZM118.9 16.2667C118.55 16.2667 118.267 16.551 118.267 16.9V27.0333C118.267 27.3823 118.55 27.6667 118.9 27.6667H121.433C121.784 27.6667 122.067 27.9498 122.067 28.3V30.7827L125.787 27.8054C125.9 27.7154 126.039 27.6667 126.183 27.6667H134.1C134.45 27.6667 134.733 27.3823 134.733 27.0333V16.9C134.733 16.551 134.45 16.2667 134.1 16.2667H118.9Z" fill="#41B7E9"/>
</g>
<g id="Group_2">
<path id="Vector_2" d="M131.566 21.3336H121.433C121.083 21.3336 120.8 21.0498 120.8 20.7002C120.8 20.3506 121.083 20.0669 121.433 20.0669H131.566C131.917 20.0669 132.2 20.3506 132.2 20.7002C132.2 21.0498 131.917 21.3336 131.566 21.3336Z" fill="#41B7E9"/>
</g>
<g id="Group_3">
<path id="Vector_3" d="M126.5 23.8668H121.433C121.083 23.8668 120.8 23.583 120.8 23.2334C120.8 22.8838 121.083 22.6001 121.433 22.6001H126.5C126.85 22.6001 127.133 22.8838 127.133 23.2334C127.133 23.583 126.85 23.8668 126.5 23.8668Z" fill="#41B7E9"/>
</g>
</g>
</g>
</g>
<g id="&#208;&#146;&#208;&#176;&#208;&#185;&#208;&#177;&#208;&#181;&#209;&#128;">
<circle id="Ellipse 15" cx="74" cy="23" r="22.25" fill="white" stroke="#675DA9" stroke-width="1.5"/>
<g id="Group_4">
<path id="Vector_4" d="M82.7896 14.178C82.2358 13.6688 79.9936 12.0386 74.9957 12.0163C74.9957 12.0163 69.1045 11.6589 66.2325 14.2941C64.6336 15.8931 64.0708 18.2291 64.0127 21.1323C63.9547 24.031 63.8787 29.4666 69.1179 30.9406H69.1223L69.1179 33.1872C69.1179 33.1872 69.0866 34.0983 69.6851 34.2815C70.4087 34.5048 70.8374 33.8125 71.5297 33.0666C71.9094 32.6557 72.432 32.0572 72.8295 31.5971C76.4116 31.8964 79.1673 31.2086 79.48 31.1058C80.2036 30.8691 84.2993 30.3465 84.9648 24.9109C85.6526 19.3189 84.6298 15.777 82.7896 14.178ZM83.3971 24.5178C82.8343 29.0557 79.5157 29.3416 78.9038 29.5381C78.6448 29.623 76.224 30.2259 73.1779 30.0249C73.1779 30.0249 70.9089 32.7629 70.2032 33.473C70.0915 33.5847 69.962 33.6294 69.8772 33.607C69.7566 33.5758 69.7208 33.4328 69.7253 33.2229C69.7253 32.9192 69.7432 29.4845 69.7432 29.4845C69.7387 29.4845 69.7387 29.4845 69.7432 29.4845C65.308 28.2562 65.567 23.629 65.6162 21.2082C65.6653 18.7874 66.1209 16.7998 67.4742 15.4644C69.8995 13.2669 74.9064 13.5929 74.9064 13.5929C79.1316 13.6108 81.1549 14.8837 81.6239 15.308C83.1827 16.648 83.9777 19.8415 83.3971 24.5178Z" fill="#675DA9"/>
<path id="Vector_5" d="M77.0551 21.2931C76.9077 21.2931 76.7827 21.177 76.7737 21.0251C76.7246 20.0648 76.2735 19.5958 75.3534 19.5467C75.1971 19.5378 75.0765 19.4038 75.0854 19.2475C75.0944 19.0911 75.2284 18.9705 75.3847 18.9795C76.5996 19.0465 77.2784 19.7432 77.341 20.9938C77.3499 21.1502 77.2293 21.2842 77.073 21.2886C77.0641 21.2931 77.0596 21.2931 77.0551 21.2931Z" fill="#675DA9"/>
<path id="Vector_6" d="M78.5019 21.7758H78.4975C78.3411 21.7713 78.2161 21.6418 78.2205 21.4854C78.2429 20.5207 77.966 19.7391 77.3764 19.0959C76.7913 18.4527 75.9829 18.1044 74.9154 18.0284C74.7591 18.015 74.6429 17.881 74.6563 17.7247C74.6697 17.5684 74.8037 17.4523 74.96 17.4657C76.166 17.555 77.1173 17.9748 77.7962 18.7163C78.4796 19.4622 78.8101 20.3956 78.7878 21.4988C78.7833 21.6552 78.6538 21.7758 78.5019 21.7758Z" fill="#675DA9"/>
<path id="Vector_7" d="M79.985 22.3564C79.8286 22.3564 79.7036 22.2313 79.7036 22.075C79.6902 20.3465 79.1944 19.0289 78.185 18.0418C77.189 17.0681 75.925 16.5723 74.4376 16.5589C74.2813 16.5589 74.1562 16.4294 74.1562 16.2731C74.1562 16.1168 74.2858 15.9917 74.4376 15.9917C76.0768 16.0051 77.4703 16.5545 78.5736 17.6353C79.6812 18.7162 80.2485 20.208 80.2663 22.0661C80.2708 22.2268 80.1457 22.3564 79.985 22.3564C79.9894 22.3564 79.9894 22.3564 79.985 22.3564Z" fill="#675DA9"/>
<path id="Vector_8" d="M75.4198 24.7905C75.4198 24.7905 75.8173 24.8262 76.0317 24.5627L76.4471 24.0401C76.6481 23.7811 77.1349 23.6158 77.6084 23.8794C77.8719 24.0267 78.3498 24.3215 78.6446 24.5404C78.9617 24.7726 79.6049 25.3086 79.6094 25.3131C79.9175 25.5721 79.989 25.9518 79.7791 26.3582C79.7791 26.3582 79.7791 26.3627 79.7791 26.3672C79.5647 26.7468 79.2744 27.1041 78.9126 27.4346C78.9081 27.4346 78.9081 27.4391 78.9037 27.4391C78.6044 27.6892 78.3096 27.8322 78.0238 27.8634C77.988 27.8724 77.9478 27.8724 77.8942 27.8724C77.7692 27.8724 77.6441 27.8545 77.5191 27.8143L77.5101 27.8009C77.0635 27.6758 76.3221 27.3632 75.0893 26.6798C74.2854 26.2376 73.6199 25.7865 73.0526 25.3354C72.7534 25.0987 72.4497 24.8352 72.137 24.5225C72.1281 24.5136 72.1147 24.5002 72.1057 24.4913C72.0968 24.4823 72.0834 24.4689 72.0745 24.46C72.0655 24.4511 72.0521 24.4377 72.0432 24.4287C72.0343 24.4198 72.0209 24.4064 72.0119 24.3975C71.7038 24.0848 71.4358 23.7811 71.199 23.4818C70.7479 22.9191 70.2968 22.2491 69.8546 21.4451C69.1713 20.2079 68.8586 19.4665 68.7336 19.0243L68.7202 19.0154C68.68 18.8903 68.6621 18.7653 68.6621 18.6402C68.6621 18.5866 68.6621 18.5464 68.671 18.5107C68.7068 18.2204 68.8497 17.9301 69.0954 17.6308C69.0954 17.6263 69.0998 17.6263 69.0998 17.6219C69.4303 17.2556 69.7877 16.9698 70.1673 16.7554C70.1673 16.7554 70.1718 16.7554 70.1762 16.7554C70.5782 16.5455 70.9579 16.6169 71.2214 16.9251C71.2214 16.9251 71.7618 17.5727 71.9941 17.8899C72.2129 18.1891 72.5077 18.6626 72.6551 18.9261C72.9186 19.3995 72.7534 19.8864 72.4943 20.0873L71.9717 20.5027C71.7082 20.7171 71.744 21.1146 71.744 21.1146C71.744 21.1146 72.5166 24.0535 75.4198 24.7905Z" fill="#675DA9"/>
</g>
</g>
<g id="&#208;&#146;&#208;&#176;&#209;&#130;&#209;&#129;&#208;&#176;&#208;&#191;">
<circle id="Ellipse 14" cx="23" cy="23" r="22.25" fill="white" stroke="#0DC143" stroke-width="1.5"/>
<path id="Vector_9" d="M30.9673 15.0649C29.0218 13.0784 26.3324 12 23.5858 12C17.7493 12 13.0572 16.7108 13.1144 22.4432C13.1144 24.2595 13.6294 26.0189 14.4877 27.6081L13 33L18.5504 31.5811C20.0954 32.4324 21.812 32.8297 23.5286 32.8297C29.3079 32.8297 34 28.1189 34 22.3865C34 19.6054 32.9128 16.9946 30.9673 15.0649ZM23.5858 31.0703C22.0409 31.0703 20.4959 30.673 19.1798 29.8784L18.8365 29.7081L15.5177 30.5595L16.376 27.3243L16.1471 26.9838C13.6294 22.9541 14.8311 17.6189 18.951 15.1216C23.0708 12.6243 28.3924 13.8162 30.9101 17.9027C33.4278 21.9892 32.2262 27.2676 28.1063 29.7649C26.7902 30.6162 25.188 31.0703 23.5858 31.0703ZM28.6213 24.7703L27.9918 24.4865C27.9918 24.4865 27.0763 24.0892 26.5041 23.8054C26.4469 23.8054 26.3896 23.7486 26.3324 23.7486C26.1608 23.7486 26.0463 23.8054 25.9319 23.8622C25.9319 23.8622 25.8747 23.9189 25.0736 24.827C25.0163 24.9405 24.9019 24.9973 24.7875 24.9973H24.7302C24.673 24.9973 24.5586 24.9405 24.5014 24.8838L24.2153 24.7703C23.5858 24.4865 23.0136 24.1459 22.5559 23.6919C22.4414 23.5784 22.2698 23.4649 22.1553 23.3514C21.7548 22.9541 21.3542 22.5 21.0681 21.9892L21.0109 21.8757C20.9537 21.8189 20.9537 21.7622 20.8965 21.6486C20.8965 21.5351 20.8965 21.4216 20.9537 21.3649C20.9537 21.3649 21.1826 21.0811 21.3542 20.9108C21.4687 20.7973 21.5259 20.627 21.6403 20.5135C21.7548 20.3432 21.812 20.1162 21.7548 19.9459C21.6975 19.6622 21.0109 18.1297 20.8392 17.7892C20.7248 17.6189 20.6104 17.5622 20.4387 17.5054H20.267C20.1526 17.5054 19.9809 17.5054 19.8093 17.5054C19.6948 17.5054 19.5804 17.5622 19.4659 17.5622L19.4087 17.6189C19.2943 17.6757 19.1798 17.7892 19.0654 17.8459C18.951 17.9595 18.8937 18.073 18.7793 18.1865C18.3787 18.6973 18.1499 19.3216 18.1499 19.9459C18.1499 20.4 18.2643 20.8541 18.436 21.2514L18.4932 21.4216C19.0082 22.5 19.6948 23.4649 20.6104 24.3162L20.8392 24.5432C21.0109 24.7135 21.1826 24.827 21.297 24.9973C22.4986 26.0189 23.8719 26.7568 25.4169 27.1541C25.5886 27.2108 25.8174 27.2108 25.9891 27.2676C26.1608 27.2676 26.3896 27.2676 26.5613 27.2676C26.8474 27.2676 27.1907 27.1541 27.4196 27.0405C27.5913 26.927 27.7057 26.927 27.8202 26.8135L27.9346 26.7C28.049 26.5865 28.1635 26.5297 28.2779 26.4162C28.3924 26.3027 28.5068 26.1892 28.564 26.0757C28.6785 25.8486 28.7357 25.5649 28.7929 25.2811C28.7929 25.1676 28.7929 24.9973 28.7929 24.8838C28.7929 24.8838 28.7357 24.827 28.6213 24.7703Z" fill="#0DC143"/>
</g>
</g>
</svg>
