<svg width="66" height="66" viewBox="0 0 66 66" fill="none" xmlns="http://www.w3.org/2000/svg">
<g id="&#208;&#146;&#208;&#176;&#208;&#185;&#208;&#177;&#208;&#181;&#209;&#128;">
<circle id="Ellipse 15" cx="33" cy="33" r="32.25" stroke="white" stroke-width="1.5"/>
<g id="Group">
<path id="Vector" d="M45.6114 20.3423C44.8167 19.6117 41.5997 17.2727 34.4288 17.2406C34.4288 17.2406 25.9761 16.7279 21.8556 20.5089C19.5614 22.8031 18.7539 26.1547 18.6706 30.3201C18.5873 34.4791 18.4783 42.2781 25.9954 44.3929H26.0018L25.9954 47.6163C25.9954 47.6163 25.9505 48.9236 26.8092 49.1863C27.8474 49.5068 28.4626 48.5135 29.4559 47.4433C30.0006 46.8537 30.7504 45.995 31.3207 45.3349C36.4602 45.7643 40.4142 44.7774 40.8628 44.63C41.9009 44.2903 47.7774 43.5406 48.7323 35.7416C49.7191 27.7183 48.2516 22.6365 45.6114 20.3423ZM46.4829 35.1776C45.6755 41.6885 40.914 42.0987 40.0361 42.3807C39.6644 42.5024 36.1911 43.3675 31.8206 43.0792C31.8206 43.0792 28.5651 47.0075 27.5526 48.0264C27.3924 48.1866 27.2065 48.2507 27.0848 48.2187C26.9118 48.1738 26.8605 47.9688 26.8669 47.6676C26.8669 47.2318 26.8925 42.3038 26.8925 42.3038C26.8861 42.3038 26.8861 42.3038 26.8925 42.3038C20.529 40.5414 20.9007 33.9024 20.9712 30.429C21.0417 26.9557 21.6953 24.104 23.6371 22.1879C27.1168 19.035 34.3006 19.5028 34.3006 19.5028C40.3629 19.5284 43.2659 21.3548 43.9388 21.9636C46.1753 23.8861 47.316 28.4681 46.4829 35.1776Z" fill="white"/>
<path id="Vector_2" d="M37.3834 30.5509C37.1719 30.5509 36.9925 30.3843 36.9797 30.1664C36.9092 28.7886 36.2619 28.1157 34.9418 28.0452C34.7175 28.0324 34.5445 27.8402 34.5573 27.6159C34.5701 27.3916 34.7624 27.2186 34.9867 27.2314C36.7297 27.3275 37.7038 28.3272 37.7935 30.1216C37.8064 30.3458 37.6333 30.5381 37.409 30.5445C37.3962 30.5509 37.3898 30.5509 37.3834 30.5509Z" fill="white"/>
<path id="Vector_3" d="M39.4594 31.2434H39.453C39.2287 31.237 39.0493 31.0512 39.0557 30.8269C39.0878 29.4427 38.6905 28.3212 37.8446 27.3984C37.0051 26.4756 35.8452 25.9758 34.3136 25.8668C34.0893 25.8476 33.9227 25.6553 33.9419 25.4311C33.9612 25.2068 34.1534 25.0401 34.3777 25.0594C36.1079 25.1875 37.4729 25.7899 38.4469 26.8537C39.4274 27.9239 39.9016 29.2633 39.8696 30.8461C39.8632 31.0704 39.6773 31.2434 39.4594 31.2434Z" fill="white"/>
<path id="Vector_4" d="M41.5866 32.0765C41.3623 32.0765 41.1828 31.8971 41.1828 31.6728C41.1636 29.1927 40.4523 27.3023 39.004 25.886C37.5749 24.489 35.7613 23.7777 33.6274 23.7584C33.4031 23.7584 33.2236 23.5726 33.2236 23.3483C33.2236 23.124 33.4095 22.9446 33.6274 22.9446C35.9792 22.9638 37.9786 23.752 39.5615 25.3029C41.1508 26.8537 41.9647 28.9941 41.9903 31.66C41.9967 31.8907 41.8173 32.0765 41.5866 32.0765C41.593 32.0765 41.593 32.0765 41.5866 32.0765Z" fill="white"/>
<path id="Vector_5" d="M35.0377 35.5691C35.0377 35.5691 35.608 35.6203 35.9156 35.2422L36.5116 34.4925C36.8 34.1208 37.4985 33.8837 38.1778 34.2618C38.5559 34.4732 39.2416 34.8962 39.6645 35.2102C40.1195 35.5434 41.0423 36.3124 41.0487 36.3189C41.4909 36.6905 41.5934 37.2352 41.2922 37.8184C41.2922 37.8184 41.2922 37.8248 41.2922 37.8312C40.9846 38.3759 40.5681 38.8886 40.049 39.3628C40.0426 39.3628 40.0426 39.3692 40.0362 39.3692C39.6068 39.7281 39.1839 39.9332 38.7737 39.978C38.7225 39.9909 38.6648 39.9909 38.5879 39.9909C38.4085 39.9909 38.229 39.9652 38.0496 39.9075L38.0368 39.8883C37.3959 39.7089 36.3322 39.2603 34.5634 38.2798C33.4099 37.6454 32.4551 36.9981 31.6412 36.3509C31.2119 36.0113 30.7761 35.6332 30.3275 35.1846C30.3147 35.1718 30.2955 35.1525 30.2827 35.1397C30.2698 35.1269 30.2506 35.1077 30.2378 35.0949C30.225 35.082 30.2057 35.0628 30.1929 35.05C30.1801 35.0372 30.1609 35.018 30.1481 35.0051C29.7059 34.5566 29.3214 34.1208 28.9818 33.6914C28.3345 32.884 27.6873 31.9227 27.0528 30.7692C26.0724 28.9941 25.6238 27.9303 25.4443 27.2959L25.4251 27.2831C25.3674 27.1036 25.3418 26.9242 25.3418 26.7447C25.3418 26.6678 25.3418 26.6102 25.3546 26.5589C25.4059 26.1424 25.6109 25.7258 25.9634 25.2965C25.9634 25.29 25.9698 25.29 25.9698 25.2836C26.444 24.7582 26.9567 24.348 27.5014 24.0404C27.5014 24.0404 27.5078 24.0404 27.5142 24.0404C28.091 23.7392 28.6357 23.8418 29.0138 24.2839C29.0138 24.2839 29.7892 25.2131 30.1224 25.6681C30.4365 26.0975 30.8594 26.7768 31.0709 27.1549C31.449 27.8342 31.2119 28.5327 30.8402 28.8211L30.0904 29.417C29.7123 29.7246 29.7636 30.295 29.7636 30.295C29.7636 30.295 30.8722 34.5117 35.0377 35.5691Z" fill="white"/>
</g>
</g>
</svg>
